<svg xmlns="http://www.w3.org/2000/svg" font-family="sans-serif" height="100" stroke="rgb(0,0,0)" stroke-linecap="round" stroke-width="2" viewBox="0 0 281.871 160" width="100" x="0" y="0">
<line stroke="rgb(0,0,0)" stroke-width="2.0" x1="143.9" x2="109.3" y1="120.0" y2="100.0" />
<line stroke="rgb(0,0,0)" stroke-width="2.0" x1="143.9" x2="178.6" y1="120.0" y2="100.0" />
<line stroke="rgb(0,0,0)" stroke-width="2.0" x1="40.0" x2="40.0" y1="100.0" y2="60.0" />
<line stroke="rgb(0,0,0)" stroke-width="2.0" x1="47.2" x2="47.2" y1="94.0" y2="66.0" />
<line stroke="rgb(0,0,0)" stroke-width="2.0" x1="40.0" x2="74.6" y1="60.0" y2="40.0" />
<line stroke="rgb(0,0,0)" stroke-width="2.0" x1="74.6" x2="109.3" y1="40.0" y2="60.0" />
<line stroke="rgb(0,0,0)" stroke-width="2.0" x1="76.2" x2="100.5" y1="49.2" y2="63.2" />
<line stroke="rgb(0,0,0)" stroke-width="2.0" x1="109.3" x2="109.3" y1="60.0" y2="100.0" />
<line stroke="rgb(0,0,0)" stroke-width="2.0" x1="109.3" x2="74.6" y1="100.0" y2="120.0" />
<line stroke="rgb(0,0,0)" stroke-width="2.0" x1="100.5" x2="76.2" y1="96.8" y2="110.8" />
<line stroke="rgb(0,0,0)" stroke-width="2.0" x1="74.6" x2="40.0" y1="120.0" y2="100.0" />
<line stroke="rgb(0,0,0)" stroke-width="2.0" x1="215.1" x2="178.6" y1="116.3" y2="100.0" />
<line stroke="rgb(0,0,0)" stroke-width="2.0" x1="178.6" x2="182.7" y1="100.0" y2="60.2" />
<line stroke="rgb(0,0,0)" stroke-width="2.0" x1="182.7" x2="221.9" y1="60.2" y2="51.9" />
<line stroke="rgb(0,0,0)" stroke-width="2.0" x1="221.9" x2="241.9" y1="51.9" y2="86.5" />
<line stroke="rgb(0,0,0)" stroke-width="2.0" x1="241.9" x2="215.1" y1="86.5" y2="116.3" />
</svg>
