<svg xmlns="http://www.w3.org/2000/svg" font-family="sans-serif" height="100" stroke="rgb(0,0,0)" stroke-linecap="round" stroke-width="2" viewBox="0 0 365.867 248.82" width="100" x="0" y="0">
<line stroke="rgb(0,0,0)" stroke-width="2.0" x1="162.7" x2="140.5" y1="85.2" y2="98.0" />
<line stroke="rgb(0,0,0)" stroke-width="2.0" x1="107.0" x2="107.0" y1="53.0" y2="78.7" />
<line stroke="rgb(0,0,0)" stroke-width="2.0" x1="194.6" x2="207.4" y1="197.6" y2="175.3" />
<line stroke="rgb(0,0,0)" stroke-width="2.0" x1="220.3" x2="207.4" y1="197.6" y2="175.3" />
<line stroke="rgb(0,0,0)" stroke-width="2.0" x1="207.4" x2="140.5" y1="175.3" y2="136.7" />
<line stroke="rgb(0,0,0)" stroke-width="2.0" x1="207.4" x2="240.9" y1="175.3" y2="156.0" />
<line stroke="rgb(0,0,0)" stroke-width="2.0" x1="200.8" x2="225.2" y1="128.6" y2="120.7" />
<line stroke="rgb(0,0,0)" stroke-width="2.0" x1="73.5" x2="51.3" y1="98.0" y2="85.2" />
<line stroke="rgb(0,0,0)" stroke-width="2.0" x1="303.8" x2="279.4" y1="159.9" y2="152.0" />
<line stroke="rgb(0,0,0)" stroke-width="2.0" x1="107.0" x2="107.0" y1="156.0" y2="181.7" />
<line stroke="rgb(0,0,0)" stroke-width="2.0" x1="73.5" x2="51.3" y1="136.7" y2="149.5" />
<line stroke="rgb(0,0,0)" stroke-width="2.0" x1="225.2" x2="206.1" y1="120.7" y2="103.5" />
<line stroke="rgb(0,0,0)" stroke-width="2.0" x1="240.9" x2="240.9" y1="156.0" y2="181.7" />
<line stroke="rgb(0,0,0)" stroke-width="2.0" x1="279.4" x2="284.7" y1="152.0" y2="177.1" />
<line stroke="rgb(0,0,0)" stroke-width="2.0" x1="264.4" x2="253.9" y1="71.4" y2="94.8" />
<line stroke="rgb(0,0,0)" stroke-width="2.0" x1="302.5" x2="287.4" y1="93.4" y2="114.1" />
<line stroke="rgb(0,0,0)" stroke-width="2.0" x1="253.9" x2="238.8" y1="94.8" y2="74.0" />
<line stroke="rgb(0,0,0)" stroke-width="2.0" x1="287.4" x2="312.9" y1="114.1" y2="116.8" />
<line stroke="rgb(0,0,0)" stroke-width="2.0" x1="73.5" x2="73.5" y1="136.7" y2="98.0" />
<line stroke="rgb(0,0,0)" stroke-width="2.0" x1="80.7" x2="80.7" y1="130.7" y2="104.0" />
<line stroke="rgb(0,0,0)" stroke-width="2.0" x1="73.5" x2="107.0" y1="98.0" y2="78.7" />
<line stroke="rgb(0,0,0)" stroke-width="2.0" x1="107.0" x2="140.5" y1="78.7" y2="98.0" />
<line stroke="rgb(0,0,0)" stroke-width="2.0" x1="108.6" x2="131.7" y1="87.9" y2="101.2" />
<line stroke="rgb(0,0,0)" stroke-width="2.0" x1="140.5" x2="140.5" y1="98.0" y2="136.7" />
<line stroke="rgb(0,0,0)" stroke-width="2.0" x1="140.5" x2="107.0" y1="136.7" y2="156.0" />
<line stroke="rgb(0,0,0)" stroke-width="2.0" x1="131.7" x2="108.6" y1="133.4" y2="146.8" />
<line stroke="rgb(0,0,0)" stroke-width="2.0" x1="107.0" x2="73.5" y1="156.0" y2="136.7" />
<line stroke="rgb(0,0,0)" stroke-width="2.0" x1="279.4" x2="240.9" y1="152.0" y2="156.0" />
<line stroke="rgb(0,0,0)" stroke-width="2.0" x1="240.9" x2="225.2" y1="156.0" y2="120.7" />
<line stroke="rgb(0,0,0)" stroke-width="2.0" x1="225.2" x2="253.9" y1="120.7" y2="94.8" />
<line stroke="rgb(0,0,0)" stroke-width="2.0" x1="253.9" x2="287.4" y1="94.8" y2="114.1" />
<line stroke="rgb(0,0,0)" stroke-width="2.0" x1="287.4" x2="279.4" y1="114.1" y2="152.0" />
<text fill="rgb(191,191,191)" font-size="16" stroke="rgb(191,191,191)" stroke-width="1" x="263.652827" y="67.479434">H</text>
<text fill="rgb(191,191,191)" font-size="16" stroke="rgb(191,191,191)" stroke-width="1" x="225.197980" y="71.521202">H</text>
<text fill="rgb(191,191,191)" font-size="16" stroke="rgb(191,191,191)" stroke-width="1" x="319.866839" y="126.178293">H</text>
<text fill="rgb(191,191,191)" font-size="16" stroke="rgb(191,191,191)" stroke-width="1" x="304.139689" y="90.854535">H</text>
<text fill="rgb(191,191,191)" font-size="16" stroke="rgb(191,191,191)" stroke-width="1" x="281.411992" y="197.779940">H</text>
<text fill="rgb(191,191,191)" font-size="16" stroke="rgb(191,191,191)" stroke-width="1" x="310.146926" y="171.906890">H</text>
<text fill="rgb(191,191,191)" font-size="16" stroke="rgb(191,191,191)" stroke-width="1" x="234.917894" y="202.666667">H</text>
<text fill="rgb(191,191,191)" font-size="16" stroke="rgb(191,191,191)" stroke-width="1" x="190.455810" y="102.803192">H</text>
<text fill="rgb(191,191,191)" font-size="16" stroke="rgb(191,191,191)" stroke-width="1" x="182.416558" y="140.624899">H</text>
<text fill="rgb(191,191,191)" font-size="16" stroke="rgb(191,191,191)" stroke-width="1" x="182.098245" y="216.819649">H</text>
<text fill="rgb(191,191,191)" font-size="16" stroke="rgb(191,191,191)" stroke-width="1" x="220.764911" y="216.819649">H</text>
<text fill="rgb(191,191,191)" font-size="16" stroke="rgb(191,191,191)" stroke-width="1" x="100.972631" y="202.666667">H</text>
<text fill="rgb(191,191,191)" font-size="16" stroke="rgb(191,191,191)" stroke-width="1" x="34.000000" y="164.000000">H</text>
<text fill="rgb(191,191,191)" font-size="16" stroke="rgb(191,191,191)" stroke-width="1" x="34.000000" y="86.666667">H</text>
<text fill="rgb(191,191,191)" font-size="16" stroke="rgb(191,191,191)" stroke-width="1" x="100.972631" y="48.000000">H</text>
<text fill="rgb(191,191,191)" font-size="16" stroke="rgb(191,191,191)" stroke-width="1" x="167.945262" y="86.666667">H</text>
</svg>
